<svg width="128" height="128" viewBox="0 0 128 128" fill="none" xmlns="http://www.w3.org/2000/svg">
<rect width="128" height="128" rx="64" fill="black"/>
<g filter="url(#filter0_d_542_689)">
<path d="M23.912 68.32L20.312 78.976C19.544 81.328 18.344 82.384 16.328 82.384C14.168 82.384 12.728 81.184 11.864 78.64L5.288 61.024C5.096 60.592 5 60.016 5 59.488C5 57.424 6.536 55.792 8.648 55.792C10.376 55.792 11.816 56.896 12.296 58.576L16.232 71.296L20.12 59.2C20.888 56.752 21.992 55.744 23.816 55.744C25.88 55.744 26.936 56.656 27.752 59.2L31.592 71.296L35.528 58.576C36.008 56.896 37.448 55.792 39.128 55.792C41.288 55.792 42.824 57.424 42.824 59.488C42.824 60.016 42.728 60.592 42.536 61.024L35.96 78.64C35.048 81.184 33.656 82.384 31.496 82.384C29.48 82.384 28.28 81.328 27.512 78.976L23.912 68.32ZM51.6635 71.392C52.0955 72.544 52.4795 73.456 52.9115 74.032C53.8235 75.232 55.7435 76.144 57.7595 76.144C59.3435 76.144 61.0235 75.664 62.6075 74.8C64.2875 73.84 64.8635 73.648 65.5355 73.648C67.2635 73.648 68.7035 74.944 68.7035 76.624C68.7035 79.648 63.1355 82.576 57.2795 82.576C49.3115 82.576 43.7435 77.056 43.7435 69.328C43.7435 61.6 49.3115 55.696 56.5595 55.696C63.3755 55.696 69.0875 61.456 69.0875 68.368C69.0875 70.576 68.2235 71.392 65.8715 71.392H51.6635ZM56.7035 61.6C54.0635 61.6 52.2395 63.376 51.5195 66.688H61.7435C61.0715 63.328 59.3915 61.6 56.7035 61.6ZM79.0486 70.096V78.736C79.0486 80.752 77.3686 82.48 75.3526 82.48C73.3366 82.48 71.6086 80.752 71.6086 78.736V48.112C71.6086 46.096 73.2886 44.368 75.3046 44.368C77.3686 44.368 79.0486 46.096 79.0486 48.112V64.528L86.2486 57.472C87.2086 56.416 88.4086 55.84 89.3686 55.84C91.2886 55.84 92.8726 57.424 92.8726 59.344C92.8726 60.256 92.2486 61.504 91.3846 62.272L85.6246 67.36L93.4966 76.48C94.0726 77.248 94.4566 78.112 94.4566 78.976C94.4566 80.944 92.8246 82.528 90.7606 82.528C89.7046 82.528 88.4566 81.856 87.6406 80.8L79.0486 70.096ZM94.8841 69.04C94.8841 61.504 100.404 55.648 107.556 55.648C114.756 55.648 120.276 61.552 120.276 69.136C120.276 76.72 114.756 82.576 107.556 82.576C100.356 82.624 94.8841 76.72 94.8841 69.04ZM107.556 62.368C104.484 62.368 102.228 65.2 102.228 69.136C102.228 73.168 104.484 76.048 107.556 76.048C110.676 76.048 112.884 73.216 112.884 69.184C112.884 65.2 110.628 62.368 107.556 62.368Z" fill="white"/>
</g>
<circle cx="24" cy="47" r="5" fill="white"/>
<defs>
<filter id="filter0_d_542_689" x="1" y="44.368" width="123.276" height="46.256" filterUnits="userSpaceOnUse" color-interpolation-filters="sRGB">
<feFlood flood-opacity="0" result="BackgroundImageFix"/>
<feColorMatrix in="SourceAlpha" type="matrix" values="0 0 0 0 0 0 0 0 0 0 0 0 0 0 0 0 0 0 127 0" result="hardAlpha"/>
<feOffset dy="4"/>
<feGaussianBlur stdDeviation="2"/>
<feComposite in2="hardAlpha" operator="out"/>
<feColorMatrix type="matrix" values="0 0 0 0 0 0 0 0 0 0 0 0 0 0 0 0 0 0 0.25 0"/>
<feBlend mode="normal" in2="BackgroundImageFix" result="effect1_dropShadow_542_689"/>
<feBlend mode="normal" in="SourceGraphic" in2="effect1_dropShadow_542_689" result="shape"/>
</filter>
</defs>
</svg>
